<svg width="203" height="271" viewBox="0 0 203 271" fill="none" xmlns="http://www.w3.org/2000/svg">
<path fill-rule="evenodd" clip-rule="evenodd" d="M5.15397e-05 236.832L0 270.666L0.000595093 270.666H118.417C165.131 270.666 203 232.796 203 186.083C203 160.911 192.004 138.307 174.554 122.813C191.771 110.546 202.999 90.4174 202.999 67.6664C202.999 30.2984 172.709 0.0050867 135.342 0H95.8381L33.8333 7.6294e-06L17.6557 0H5.15397e-05V236.832ZM135.333 101.5L118.417 101.5H101.5H67.667V135.333L67.667 169.166H33.8333L33.8333 33.8332H135.333L135.333 33.8332C154.019 33.8335 169.166 48.981 169.166 67.6664C169.166 86.3519 154.018 101.5 135.333 101.5ZM33.8332 236.832H118.417C146.445 236.832 169.166 214.111 169.166 186.083C169.166 158.054 146.445 135.333 118.417 135.333L101.5 135.333L101.5 202.999L101.5 202.999L67.667 202.999H33.8332V236.832Z" fill="#1E1E2D"/>
</svg>
